<?xml version="1.0"?>
<svg width="32" height="32" xmlns="http://www.w3.org/2000/svg" xmlns:svg="http://www.w3.org/2000/svg" xmlns:xlink="http://www.w3.org/1999/xlink">
 <defs>
  <path d="m45.54,38.76c-2.02,1.05 -12.44,5.34 -14.66,6.5s-3.46,1.14 -5.21,0.31s-12.85,-5.32 -14.85,-6.28c-1,-0.48 -1.52,-0.88 -1.52,-1.26l0,-3.81s14.44,-3.15 16.78,-3.98s3.14,-0.87 5.12,-0.14s13.85,2.86 15.82,3.58l0,3.76c0,0.38 -0.46,0.8 -1.48,1.33l0,-0.01z" id="B"/portfolio/>
  <path d="m45.54,28.73c-2.02,1.05 -12.44,5.34 -14.66,6.5s-3.46,1.14 -5.21,0.31s-12.85,-5.32 -14.85,-6.28s-2.04,-1.61 -0.08,-2.38l15.33,-5.94c2.34,-0.83 3.14,-0.87 5.13,-0.14s12.35,4.86 14.31,5.57s2.04,1.31 0.03,2.36z" id="C"/portfolio/>
  <symbol height="64" id="svg_13" viewBox="0 0 32 32" width="64" xmlns="http://www.w3.org/2000/svg">
   <path d="m15.9,0.09l0.85,1.6c0.2,0.3 0.4,0.56 0.65,0.8c0.71,0.72 1.39,1.47 2,2.27c1.45,1.9 2.43,4.01 3.12,6.29c0.42,1.4 0.65,2.83 0.67,4.27c0.07,4.32 -1.42,8.04 -4.4,11.12c-0.49,0.49 -1.01,0.94 -1.57,1.34c-0.3,0 -0.44,-0.22 -0.56,-0.43c-0.23,-0.39 -0.37,-0.82 -0.44,-1.26c-0.1,-0.52 -0.17,-1.04 -0.14,-1.58l0,-0.25c-0.02,-0.05 -0.28,-24.05 -0.18,-24.17z" fill="#599636"/portfolio/>
   <path d="m15.9,0.03c-0.03,-0.07 -0.07,-0.01 -0.11,0.02c0.02,0.35 -0.1,0.66 -0.29,0.96c-0.21,0.3 -0.49,0.52 -0.77,0.77c-1.55,1.34 -2.77,2.96 -3.74,4.77c-1.3,2.44 -1.97,5.06 -2.16,7.81c-0.09,1 0.31,4.5 0.62,5.51c0.86,2.68 2.39,4.93 4.38,6.89c0.49,0.47 1.01,0.9 1.55,1.32c0.15,0 0.17,-0.14 0.21,-0.24a4.78,4.78 0 0 0 0.15,-0.68l0.35,-2.62l-0.19,-24.51z" fill="#6cac48"/portfolio/>
   <path d="m16.75,28.84c0.04,-0.39 0.23,-0.73 0.44,-1.06c-0.21,-0.08 -0.37,-0.26 -0.49,-0.45c-0.1,-0.17 -0.19,-0.38 -0.26,-0.58c-0.24,-0.73 -0.29,-1.5 -0.36,-2.24l0,-0.46c-0.09,0.07 -0.11,0.66 -0.11,0.75a17.37,17.37 0 0 1 -0.31,2.36c-0.05,0.31 -0.09,0.62 -0.28,0.9c0,0.04 0,0.07 0.01,0.12c0.32,0.93 0.4,1.87 0.46,2.83l0,0.35c0,0.42 -0.02,0.33 0.33,0.47c0.14,0.05 0.29,0.07 0.43,0.17c0.11,0 0.12,-0.09 0.12,-0.16l-0.05,-0.57l0,-1.6c-0.01,-0.28 0.04,-0.56 0.07,-0.82l0,-0.01z" fill="#c2bfbf"/portfolio/>
  </symbol>
 </defs>
 <g class="layer">
  <title>Layer 1</title>
  <use id="svg_14" transform="matrix(1 0 0 1 0 0) rotate(23.3064 8.02322 11.548) matrix(0.366481 0 0 0.366481 -6.04322 -9.51578)" x="6.37" xlink:href="#svg_13" y="25.48"/portfolio/>
  <g id="svg_1" transform="matrix(0.454556 0 0 0.454556 -1.381 -0.103815)">
   <use fill="#a41e11" id="svg_2" x="22.48" xlink:href="#B" y="20.16"/portfolio/>
   <path d="m68.02,55.11c-2.02,1.05 -12.44,5.34 -14.66,6.49s-3.46,1.15 -5.21,0.31s-12.85,-5.32 -14.85,-6.27s-2.04,-1.62 -0.08,-2.39l15.33,-5.93c2.34,-0.84 3.14,-0.87 5.13,-0.14s12.35,4.85 14.31,5.58s2.04,1.31 0.02,2.36l0.01,-0.01z" fill="#d82c20" id="svg_3"/portfolio/>
   <use fill="#a41e11" id="svg_4" x="22.48" xlink:href="#B" y="13.94"/portfolio/>
   <use fill="#d82c20" id="svg_5" x="22.48" xlink:href="#C" y="20.16"/portfolio/>
   <path d="m68.02,46.26c-2.02,1.05 -12.44,5.33 -14.66,6.49s-3.46,1.15 -5.21,0.31s-12.85,-5.32 -14.85,-6.28c-1,-0.47 -1.52,-0.88 -1.52,-1.26l0,-3.81s14.44,-3.14 16.78,-3.98s3.14,-0.87 5.12,-0.14s13.85,2.87 15.82,3.59l0,3.75c0,0.38 -0.46,0.8 -1.48,1.33z" fill="#a41e11" id="svg_6"/portfolio/>
   <use fill="#d82c20" id="svg_7" x="22.48" xlink:href="#C" y="13.71"/portfolio/>
   <g fill="#fff" id="svg_8">
    <path d="m51.58,40.87l-1.19,-1.96l-3.77,-0.34l2.82,-1.02l-0.85,-1.56l2.64,1.03l2.48,-0.81l-0.67,1.61l2.53,0.95l-3.26,0.34l-0.73,1.76zm-6.3,3.91l8.74,-1.34l-2.64,3.87l-6.1,-2.53z" id="svg_9"/portfolio/>
    <ellipse cx="42.93" cy="41.56" id="svg_10" rx="4.67" ry="1.81"/portfolio/>
   </g>
   <path d="m64.61,41.3l-5.17,2.04l0,-4.09l5.17,2.05z" fill="#7a0c00" id="svg_11"/portfolio/>
   <path d="m59.44,43.34l-0.56,0.22l-5.16,-2.04l5.72,-2.27l0,4.09z" fill="#ad2115" id="svg_12"/portfolio/>
  </g>
 </g>
</svg>